<svg id="bitcoin_svg" xmlns="http://www.w3.org/2000/svg" width="512" height="512" viewBox="0 0 512 512">
  <rect id="Rectangle_21" width="512" height="512" rx="76.8" fill="#f7931a"/>
  <path id="Path_44" d="M391,216c6-43-25-64-68-79l14-55-34-9-13,54-28-7,14-54-35-9-13,56-22-5L159,96l-8,36,24,6c14,4,17,14,15,21l-15,63,3,1-3-1-22,89c-2,5-6,11-16,8l-24-6L96,352l68,17-13,57,33,8,14-55,26,6-13,55,34,9,14-56c58,11,102,6,120-46,14-42-1-66-32-82C369,260,386,245,391,216ZM314,324c-11,41-82,20-105,14l19-75C251,269,325,280,314,324Zm9-110c-9,39-67,20-87,15l17-68C273,166,334,175,323,214Z" fill="#fff"/>
</svg>
