<svg xmlns="http://www.w3.org/2000/svg" width="24.2" height="23.941" viewBox="0 0 24.2 23.941">
  <path id="change_password_icon" d="M24,19V17H21.86a4.138,4.138,0,0,0-.42-1.02l1.52-1.52-1.41-1.41-1.52,1.52a3.786,3.786,0,0,0-1.02-.42V12h-2v2.14a4.138,4.138,0,0,0-1.02.42l-1.52-1.52-1.41,1.41,1.52,1.52a3.786,3.786,0,0,0-.42,1.02H12v2h2.14a4.138,4.138,0,0,0,.42,1.02l-1.52,1.52,1.41,1.41,1.52-1.52a3.786,3.786,0,0,0,1.02.42V24h2V21.86a4.138,4.138,0,0,0,1.02-.42l1.52,1.52,1.41-1.41-1.52-1.52a3.786,3.786,0,0,0,.42-1.02H24Zm-6,1a2,2,0,1,1,2-2A2.006,2.006,0,0,1,18,20ZM11,7.41l3.29,3.29L15.7,9.29,12.41,6,13,5.41,15.29,7.7,16.7,6.29,14.41,4,15,3.41,18.29,6.7,19.7,5.29,16.41,2l.29-.29L15.29.3,6.89,8.7A4.46,4.46,0,0,0,4.5,8,4.5,4.5,0,1,0,9,12.5a4.46,4.46,0,0,0-.7-2.39ZM4.5,15A2.5,2.5,0,1,1,7,12.5,2.5,2.5,0,0,1,4.5,15Z" transform="translate(0.1 -0.159)" fill="#ffcd46" stroke="#afafaf" stroke-width="0.2"/>
</svg>
