<svg xmlns="http://www.w3.org/2000/svg" width="170.576" height="200" viewBox="0 0 170.576 200">
  <g id="file_image_outlined_svg" transform="translate(-810.712 -796)">
    <path id="Path_88" data-name="Path 88" d="M976.831,857.4l-56.942-56.942A15.114,15.114,0,0,0,909.127,796h-83.2a15.236,15.236,0,0,0-15.218,15.221V980.78A15.234,15.234,0,0,0,825.93,996H966.07a15.235,15.235,0,0,0,15.218-15.22V868.162A15.121,15.121,0,0,0,976.831,857.4Zm-150.9-49.784h79.409a3.936,3.936,0,0,1,3.936,3.936v42.936A13.126,13.126,0,0,0,922.4,867.615h43.342a3.937,3.937,0,0,1,3.936,3.936l0,61.748-42.756-42.757-39.93,39.926a6.74,6.74,0,0,1-9.538,0l-18.885-18.885-36.242,36.241v-136.6A3.61,3.61,0,0,1,825.932,807.616Z"/>
    <path id="Path_89" data-name="Path 89" d="M870.173,890.535a18.247,18.247,0,1,0-18.248-18.247A18.248,18.248,0,0,0,870.173,890.535Z"/>
  </g>
</svg>
