<svg xmlns="http://www.w3.org/2000/svg" width="819.2" height="460.8" viewBox="0 0 819.2 460.8">
  <g id="money_svg" transform="translate(-102.4 -320)">
    <path id="Path_45" d="M908.8,742.4A25.675,25.675,0,0,1,883.2,768H140.8a25.675,25.675,0,0,1-25.6-25.6v-384a25.675,25.675,0,0,1,25.6-25.6H883.2a25.675,25.675,0,0,1,25.6,25.6Z" fill="#b8ca43"/>
    <path id="Path_46"  d="M883.2,780.8H140.8c-21.76,0-38.4-16.64-38.4-38.4v-384c0-21.76,16.64-38.4,38.4-38.4H883.2c21.76,0,38.4,16.64,38.4,38.4v384c0,21.76-16.64,38.4-38.4,38.4ZM140.8,345.6c-7.68,0-12.8,5.12-12.8,12.8v384c0,7.68,5.12,12.8,12.8,12.8H883.2c7.68,0,12.8-5.12,12.8-12.8v-384c0-7.68-5.12-12.8-12.8-12.8Z" fill="#231c1c"/>
    <path id="Path_47" d="M844.8,652.8V448a51.351,51.351,0,0,1-51.2-51.2H230.4A51.351,51.351,0,0,1,179.2,448V652.8A51.351,51.351,0,0,1,230.4,704H793.6A51.351,51.351,0,0,1,844.8,652.8Z" fill="#b8ca43"/>
    <path id="Path_48" d="M806.4,716.8H217.6V704c0-21.76-16.64-38.4-38.4-38.4H166.4V435.2h12.8c21.76,0,38.4-16.64,38.4-38.4V384H806.4v12.8c0,21.76,16.64,38.4,38.4,38.4h12.8V665.6H844.8c-21.76,0-38.4,16.64-38.4,38.4ZM241.92,691.2H782.08A62.791,62.791,0,0,1,832,641.28V459.52a62.791,62.791,0,0,1-49.92-49.92H241.92A62.791,62.791,0,0,1,192,459.52V641.28a62.791,62.791,0,0,1,49.92,49.92Z" fill="#231c1c"/>
    <path id="Path_49" d="M345.6,550.4c0,98.969,74.5,179.2,166.4,179.2s166.4-80.231,166.4-179.2S603.9,371.2,512,371.2,345.6,451.431,345.6,550.4Z" fill="#e1e0a6"/>
    <path id="Path_50" d="M512,742.4c-98.56,0-179.2-85.76-179.2-192s80.64-192,179.2-192,179.2,85.76,179.2,192S610.56,742.4,512,742.4ZM512,384c-84.48,0-153.6,74.24-153.6,166.4S427.52,716.8,512,716.8s153.6-74.24,153.6-166.4S596.48,384,512,384Z" fill="#231c1c"/>
    <path id="Path_51" d="M499.2,371.2h25.6V729.6H499.2Z" fill="#231c1c"/>
    <path id="Path_52" d="M512,691.2a76.369,76.369,0,0,1-56.32-24.32A79.322,79.322,0,0,1,435.2,614.4h25.6a49.455,49.455,0,0,0,14.08,34.56C485.12,659.2,497.92,665.6,512,665.6a51.2,51.2,0,0,0,0-102.4,76.8,76.8,0,1,1,76.8-76.8H563.2A51.2,51.2,0,1,0,512,537.6a76.8,76.8,0,0,1,0,153.6Z" fill="#231c1c"/>
  </g>
</svg>
