<svg xmlns="http://www.w3.org/2000/svg" width="456.916" height="269.24" viewBox="0 0 456.916 269.24">
  <g id="paymen_svg" transform="translate(0 -93.838)">
    <path id="Path_53" d="M324.2,93.839H442.175a14.74,14.74,0,0,1,14.74,14.74V348.336a14.74,14.74,0,0,1-14.74,14.74H324.2a14.74,14.74,0,0,1-14.74-14.74V108.579a14.739,14.739,0,0,1,14.74-14.74" fill="gray"/>
    <path id="Path_54"  d="M449.959,129.378V322.787H316.423V129.378H449.959" fill="#fff"/>
    <circle id="Ellipse_12"  cx="11.558" cy="11.558" r="11.558" transform="translate(371.631 332.351)" fill="#4d4d4d"/>
    <path id="Path_55"  d="M449.959,281.168H316.477v-13.18H449.959v13.18" fill="#e6e6e6"/>
    <path id="Path_56"  d="M441.671,363.076H426.244v0h15.183c.082,0,.163,0,.244,0m-.244-269.238h0" fill="#fff"/>
    <path id="Path_57"  d="M441.563,93.839h-97.37l10.831,35.539H449.96V322.787H413.966l12.279,40.291,15.427,0a15.489,15.489,0,0,0,15.244-15.486V109.326a15.49,15.49,0,0,0-15.353-15.487" fill="#a9a9a9"/>
    <path id="Path_58"  d="M449.959,281.168H401.281l12.684,41.619h35.994V281.168m0-151.79H355.023l42.242,138.61h52.694V129.378" fill="#fff"/>
    <path id="Path_59" d="M449.959,267.988H397.265l4.016,13.18h48.678v-13.18" fill="#eee"/>
    <path id="Path_60" d="M147.46,109.326V347.59a15.489,15.489,0,0,1-15.488,15.488H15.488A15.488,15.488,0,0,1,0,347.59V109.326A15.488,15.488,0,0,1,15.488,93.839H131.972a15.488,15.488,0,0,1,15.488,15.487" fill="#29abe2"/>
    <path id="Path_61" d="M140.5,129.378V322.787H6.964V129.378H140.5" fill="#fff"/>
    <circle id="Ellipse_13" cx="11.558" cy="11.558" r="11.558" transform="translate(62.172 332.351)" fill="#2496b5"/>
    <path id="Path_62" d="M402.121,189.318a42.6,42.6,0,0,1-37.136-22,26.855,26.855,0,0,0-2.667-4.066,52.307,52.307,0,0,0-15.754-12.566L342,148.315a64.767,64.767,0,0,0-29.886-7.306H287.241a12.555,12.555,0,0,0-12.565,12.565,12.568,12.568,0,0,0,12.566,12.566l-5.029,5.086s.427,8.15.75,10l2.988,2.833c2.9,0-10.885,2.519-8.988,4.417s.5,3.853.5,6.75c0,5.795,8.045,16.25,2.25,16.25l1.75,5.75c2.9,0,4.1-2.4,6-.5s4.75.353,4.75,3.25c0,5.795-.7,11.5-6.5,11.5l7.75,1.25c2.9,0,6.1.1,8,2s4.75-1.139,4.75,1.75c0,5.795-1.7,8.75-7.5,8.75l3.75,6.75c2.9,0-2.148,3.353-.25,5.25s-3-.9-3,2c0,5.8,8.579,8.761,2.784,8.761H402.5v-78.67h-.381Z" fill="#fcd18b"/>
    <path id="Path_63" d="M221.649,166.141V184.06h-63.57a22.8,22.8,0,0,1-14.815-5.251,16.687,16.687,0,0,1-6.132-12.668h84.517" fill="#86d359"/>
    <path id="Path_64" d="M314.017,184.06H241.253V166.141H313.52S313.694,182.21,314.017,184.06Z" fill="#86d359"/>
    <path id="Path_65" d="M300.451,187.131a10.489,10.489,0,0,1-7.417,17.912H272.926a10.491,10.491,0,0,1,0-20.982h20.108A10.446,10.446,0,0,1,300.451,187.131Z" fill="#ddb57a"/>
    <path id="Path_66" d="M310.151,208.113a10.494,10.494,0,0,1-7.424,17.912H282.618a10.491,10.491,0,1,1,0-20.982h20.108A10.479,10.479,0,0,1,310.151,208.113Z" fill="#ddb57a"/>
    <path id="Path_67" d="M319.835,229.1a10.494,10.494,0,0,1-7.416,17.912H292.311a10.491,10.491,0,1,1,0-20.982h20.108A10.446,10.446,0,0,1,319.835,229.1Z" fill="#ddb57a"/>
    <path id="Path_68" d="M329.527,250.077a10.493,10.493,0,0,1-7.416,17.911H302a10.491,10.491,0,0,1,0-20.982h20.116A10.453,10.453,0,0,1,329.527,250.077Z" fill="#ddb57a"/>
    <path id="Path_69" d="M322.441,250.077a10.456,10.456,0,0,0-7.417-3.071h-9.692a10.492,10.492,0,0,0,0-20.983h-9.692a10.492,10.492,0,1,0,0-20.983h-9.692a10.492,10.492,0,1,0,0-20.983H265.838a10.491,10.491,0,0,0,0,20.982h9.692a10.491,10.491,0,1,0,0,20.982h9.692a10.491,10.491,0,1,0,0,20.982h9.684a10.491,10.491,0,0,0,0,20.982h20.116a10.493,10.493,0,0,0,7.419-17.908Z" fill="#fcd18b"/>
    <path id="Path_70" d="M343.082,210.594s-38.813,3.722-38.813-26.536h9.748v1.9a24.634,24.634,0,0,0,24.633,24.633Z" fill="#ddb57a"/>
    <path id="Path_71" d="M287.24,166.141l5.8,17.919,20.982,0-.5-17.916Z" fill="#77bc4a"/>
    <path id="Path_72" d="M175.662,166.141l-8.369,17.919a17.914,17.914,0,0,1-17.911-17.919Z" fill="#77bc4a"/>
    <path id="Path_73" d="M251.052,166.149V184.06h-39.2V166.141h39.2Z" fill="#fc7a51"/>
    <path id="Path_74" d="M299.9,141.01a14.687,14.687,0,0,1-14.2,10.952V141.1a12.485,12.485,0,0,1,1.543-.094H299.9Z" fill="#fff"/>
    <path id="Path_75" d="M293.365,194.551a7.409,7.409,0,0,0-7.409-7.409c-4.092,0-5.354,3.317-5.354,7.409s1.262,7.409,5.354,7.409A7.409,7.409,0,0,0,293.365,194.551Z" fill="#fff"/>
    <path id="Path_76" d="M140.446,281.168H6.964v-13.18H140.446v13.18" fill="#e6e6e6"/>
    <path id="Path_77" d="M311.473,236.515a7.409,7.409,0,0,0-7.408-7.409c-4.092,0-5.354,3.317-5.354,7.409s1.262,7.409,5.354,7.409A7.409,7.409,0,0,0,311.473,236.515Z" fill="#fff"/>
    <path id="Path_78" d="M302.418,215.533a7.409,7.409,0,0,0-7.408-7.409c-4.092,0-5.354,3.317-5.354,7.409s1.262,7.409,5.354,7.409A7.408,7.408,0,0,0,302.418,215.533Z" fill="#fff"/>
    <path id="Path_79" d="M321.55,257.5a7.409,7.409,0,0,0-7.409-7.409c-4.092,0-5.354,3.317-5.354,7.409s1.262,7.409,5.354,7.409A7.409,7.409,0,0,0,321.55,257.5Z" fill="#fff"/>
    <path id="Path_80" d="M449.626,189.318H400.71v78.67H450.7Z" fill="#86d359"/>
    <rect id="Rectangle_22"  width="19.598" height="78.67" transform="translate(431.105 189.318)" fill="#77bc4a"/>
    <path id="Path_81" d="M140.5,175.889v146.9H104.51l12.279,40.291h15.183A15.489,15.489,0,0,0,147.46,347.59v-166a20.968,20.968,0,0,1-4.2-2.78,18.98,18.98,0,0,1-2.764-2.92m-8.528-82.051H34.737l10.831,35.54H140.5v36.763h6.959V109.326a15.488,15.488,0,0,0-15.487-15.488" fill="#6ec6eb"/>
    <path id="Path_82" d="M140.5,129.378H45.568L87.81,267.988h52.636v13.18H91.826l12.684,41.619H140.5v-146.9a16.027,16.027,0,0,1-3.369-9.748H140.5V129.378" fill="#fff"/>
    <path id="Path_83" d="M147.46,166.141H137.131a16.033,16.033,0,0,0,3.369,9.748,18.88,18.88,0,0,0,2.763,2.92,21.054,21.054,0,0,0,4.2,2.78h0V166.141" fill="#ade18e"/>
    <path id="Path_84" d="M140.446,267.988H87.81l4.016,13.18h48.62v-13.18" fill="#eee"/>
    <path id="Path_85" d="M204.478,201.972a10.456,10.456,0,0,0,3.077-7.281A10.8,10.8,0,0,0,196.7,184.06h-29.41a17.914,17.914,0,0,1-17.911-17.919h26.28A12.556,12.556,0,0,0,188.2,152.683a12.811,12.811,0,0,0-12.908-11.673H150.8a64.731,64.731,0,0,0-29.886,7.306l-4.574,2.37a52.39,52.39,0,0,0-15.754,12.566,17.862,17.862,0,0,0-1.285,1.762A52.8,52.8,0,0,1,55.17,189.319H54.13v78.67H167.994a10.491,10.491,0,0,0,0-20.982h9.692a10.491,10.491,0,0,0,0-20.982h9.684a10.491,10.491,0,1,0,0-20.982h9.692A10.461,10.461,0,0,0,204.478,201.972Z" fill="#fcd18b"/>
    <path id="Path_86" d="M164.247,141.01a14.687,14.687,0,0,0,14.2,10.952V141.1a12.485,12.485,0,0,0-1.543-.094h-12.66Z" fill="#fff"/>
    <path id="Path_87" d="M56.82,189.318H6.964v78.67H57.919Z" fill="#fc7a51"/>
    <rect id="Rectangle_23" width="19.598" height="78.67" transform="translate(6.964 189.318)" fill="#e86e4d"/>
  </g>
</svg>
