<svg xmlns="http://www.w3.org/2000/svg" width="513" height="427.062" viewBox="0 0 513 427.062">
  <g id="points" transform="translate(0.5 -42.469)">
    <path id="Path_16" d="M271.266,382.5h-9.672v19.484h9.672c6.125,0,11.109-4.375,11.109-9.75C282.375,386.875,277.391,382.5,271.266,382.5Z" fill="#ffcd46" stroke="#003e51" stroke-width="1"/>
    <path id="Path_17"  d="M269.063,328.719a70.156,70.156,0,1,0,70.172,70.156A70.165,70.165,0,0,0,269.063,328.719Zm2.2,84.094h-9.672V427a4.935,4.935,0,0,1-4.938,4.922h-2.484A4.921,4.921,0,0,1,249.25,427V376.594a4.918,4.918,0,0,1,4.922-4.906h17.094c12.938,0,23.469,9.219,23.469,20.547C294.734,403.594,284.2,412.813,271.266,412.813Z" fill="#ffcd46" stroke="#003e51" stroke-width="1"/>
    <path id="Path_18"  d="M228.531,270.313c0,13.406-25.516,24.25-56.984,24.25-31.484,0-56.984-10.844-56.984-24.25s25.5-24.281,56.984-24.281S228.531,256.906,228.531,270.313Z" fill="#ffcd46" stroke="#003e51" stroke-width="1"/>
    <path id="Path_19"  d="M114.563,311.375c0,13.406,25.5,24.266,56.984,24.266s56.984-10.859,56.984-24.266v-6.031a5.494,5.494,0,0,0-2.484-4.594,5.424,5.424,0,0,0-5.2-.469s-17.828,11-49.3,11-49.3-11-49.3-11a5.448,5.448,0,0,0-5.219.469,5.517,5.517,0,0,0-2.469,4.594v6.031Z" fill="#ffcd46" stroke="#003e51" stroke-width="1"/>
    <path id="Path_20"  d="M189.953,352.406a89.823,89.823,0,0,0-10.2,25.406c-2.7.188-5.422.266-8.219.266-31.453,0-56.969-10.859-56.969-24.3V347.8a5.506,5.506,0,0,1,7.672-5.078s17.844,11,49.3,11A125.579,125.579,0,0,0,189.953,352.406Z" fill="#ffcd46" stroke="#003e51" stroke-width="1"/>
    <path id="Path_21"  d="M179.813,420.25c-2.688.188-5.484.25-8.281.25-31.453,0-56.969-10.875-56.969-24.25v-6.031a5.531,5.531,0,0,1,2.469-4.625,5.59,5.59,0,0,1,5.2-.469s17.844,11.031,49.3,11.031c2,0,3.922-.047,5.813-.125-.063.938-.063,1.906-.063,2.844A90.282,90.282,0,0,0,179.813,420.25Z" fill="#ffcd46" stroke="#003e51" stroke-width="1"/>
    <path id="Path_22"  d="M200.281,459.594a118.965,118.965,0,0,1-28.75,3.344c-31.453,0-56.969-10.875-56.969-24.25v-6.031a5.506,5.506,0,0,1,7.672-5.094s17.844,11,49.3,11a127.959,127.959,0,0,0,14.391-.781A92.205,92.205,0,0,0,200.281,459.594Z" fill="#ffcd46" stroke="#003e51" stroke-width="1"/>
    <path id="Path_23" d="M384.266,178.031c0,13.406-25.516,24.266-56.984,24.266-31.484,0-56.984-10.859-56.984-24.266s25.5-24.25,56.984-24.25C358.75,153.781,384.266,164.625,384.266,178.031Z" fill="#ffcd46" stroke="#003e51" stroke-width="1"/>
    <path id="Path_24"  d="M270.3,271.156c0,13.375,25.5,24.25,56.984,24.25,31.469,0,56.984-10.875,56.984-24.25v-6.031a5.522,5.522,0,0,0-7.687-5.094s-17.828,11.016-49.3,11.016c-31.484,0-49.3-11.016-49.3-11.016a5.513,5.513,0,0,0-7.688,5.094v6.031Z" fill="#ffcd46" stroke="#003e51" stroke-width="1"/>
    <path id="Path_25"  d="M270.3,225.156c0,13.406,25.5,24.266,56.984,24.266,31.469,0,56.984-10.859,56.984-24.266V219.14a5.522,5.522,0,0,0-7.687-5.078s-17.828,11-49.3,11c-31.484,0-49.3-11-49.3-11a5.513,5.513,0,0,0-7.688,5.078v6.016Z" fill="#ffcd46" stroke="#003e51" stroke-width="1"/>
    <path id="Path_26"  d="M381.781,398.438a5.549,5.549,0,0,0-5.2-.469s-6.2,3.8-17.656,6.938a89.089,89.089,0,0,1-5.563,25.719c18.344-4.031,30.906-12.156,30.906-21.563v-6.016A5.5,5.5,0,0,0,381.781,398.438Z" fill="#ffcd46" stroke="#003e51" stroke-width="1"/>
    <path id="Path_27" d="M381.781,352.469a5.466,5.466,0,0,0-5.2-.469s-9.172,5.625-25.875,8.828a89.416,89.416,0,0,1,7.125,22.734c15.875-4.313,26.438-11.844,26.438-20.469v-6.031A5.492,5.492,0,0,0,381.781,352.469Z" fill="#ffcd46" stroke="#003e51" stroke-width="1"/>
    <path id="Path_28"  d="M381.781,306.484a5.507,5.507,0,0,0-5.2-.469s-17.828,11.016-49.3,11.016a121.06,121.06,0,0,1-29.141-3.422,90.419,90.419,0,0,1,39.922,27.328c26.3-2.156,46.2-11.984,46.2-23.813v-6.031A5.5,5.5,0,0,0,381.781,306.484Z" fill="#ffcd46" stroke="#003e51" stroke-width="1"/>
    <rect id="Rectangle_12"  width="19.438" height="44.438" transform="translate(246.281 42.969)" fill="#ffcd46" stroke="#003e51" stroke-width="1"/>
    <path id="Path_29"  d="M158.641,110.875,141.8,120.594,119.578,82.125l16.844-9.734Z" fill="#ffcd46" stroke="#003e51" stroke-width="1"/>
    <path id="Path_30"  d="M77.656,184.75l-9.734,16.844L29.438,179.375l9.718-16.844Z" fill="#ffcd46" stroke="#003e51" stroke-width="1"/>
    <path id="Path_31"  d="M482.563,418.531l-9.719,16.844-38.485-22.219,9.719-16.843Z" fill="#ffcd46" stroke="#003e51" stroke-width="1"/>
    <rect id="Rectangle_13"  width="44.438" height="19.469" transform="translate(0 289.219)" fill="#ffcd46" stroke="#003e51" stroke-width="1"/>
    <path id="Path_32"  d="M512,289.234l-.016,19.454-44.437-.016V289.219Z" fill="#ffcd46" stroke="#003e51" stroke-width="1"/>
    <path id="Path_33"  d="M67.922,396.313l9.719,16.843L39.156,435.375l-9.718-16.844Z" fill="#ffcd46" stroke="#003e51" stroke-width="1"/>
    <path id="Path_34"  d="M472.844,162.531l9.7,16.844-38.484,22.219-9.719-16.844Z" fill="#ffcd46" stroke="#003e51" stroke-width="1"/>
    <path id="Path_35"  d="M375.578,72.391l16.828,9.734-22.218,38.469-16.829-9.719Z" fill="#ffcd46" stroke="#003e51" stroke-width="1"/>
  </g>
</svg>
