<?xml version="1.0" encoding="utf-8"?><!-- Uploaded to: SVG Repo, www.svgrepo.com, Generator: SVG Repo Mixer Tools -->
<svg fill="#000000" width="800px" height="800px" viewBox="0 0 24 24" id="taka-2" data-name="Flat Color" xmlns="http://www.w3.org/2000/svg" class="icon flat-color"><path id="primary" d="M18,11a1,1,0,0,0-1,1v4.5a3.5,3.5,0,0,1-7,0V12h2a1,1,0,0,0,0-2H10V6A4,4,0,0,0,6,2,1,1,0,0,0,6,4,2,2,0,0,1,8,6v4H6a1,1,0,0,0,0,2H8v4.5a5.5,5.5,0,0,0,11,0V12A1,1,0,0,0,18,11Z" style="fill: rgb(0, 0, 0);"></path></svg>