<svg xmlns="http://www.w3.org/2000/svg" width="451" height="451" viewBox="0 0 451 451">
  <g id="OTP" transform="translate(-30.5 -30.5)">
    <path id="Path_36" d="M458.474,112H265V62.41A31.382,31.382,0,0,0,233.588,31H62.408A31.381,31.381,0,0,0,31,62.41V449.59A31.438,31.438,0,0,0,62.408,481h171.18A31.439,31.439,0,0,0,265,449.59V292H458.477A22.523,22.523,0,0,0,481,269.477V134.526A22.526,22.526,0,0,0,458.474,112ZM125.5,50.08h45a11.25,11.25,0,0,1,0,22.5h-45a11.25,11.25,0,0,1,0-22.5Zm45,411.765h-45a11.25,11.25,0,1,1,0-22.5h45a11.25,11.25,0,0,1,0,22.5Zm74.7-41.6H50.8V91.75H245.2V112H125.315A22.315,22.315,0,0,0,103,134.315V269.664A22.336,22.336,0,0,0,125.336,292H166v36.149a11.122,11.122,0,0,0,18.987,7.864L229,292h16.2Zm-24.39-210.06a11.269,11.269,0,1,1-11.25,19.53l-14.308-8.28V238a11.25,11.25,0,1,1-22.5,0V221.44l-14.313,8.28a11.2,11.2,0,0,1-15.39-4.14,11.316,11.316,0,0,1,4.14-15.39L161.5,202l-14.313-8.28a11.269,11.269,0,1,1,11.25-19.529l14.313,8.279V166a11.25,11.25,0,0,1,22.5,0v16.47l14.309-8.279a11.269,11.269,0,0,1,11.25,19.529L206.5,202Zm108,0a11.269,11.269,0,1,1-11.25,19.53l-14.308-8.28V238a11.25,11.25,0,0,1-22.5,0V221.44l-14.313,8.28a11.2,11.2,0,0,1-15.39-4.14,11.316,11.316,0,0,1,4.14-15.39L269.5,202l-14.313-8.28a11.269,11.269,0,1,1,11.25-19.529l14.313,8.279V166a11.25,11.25,0,0,1,22.5,0v16.47l14.309-8.279a11.269,11.269,0,1,1,11.25,19.529L314.5,202Zm108,0a11.269,11.269,0,1,1-11.25,19.53l-14.308-8.28V238a11.25,11.25,0,1,1-22.5,0V221.44l-14.313,8.28a11.2,11.2,0,0,1-15.39-4.14,11.316,11.316,0,0,1,4.14-15.39L377.5,202l-14.313-8.28a11.269,11.269,0,0,1,11.25-19.529l14.313,8.279V166a11.25,11.25,0,0,1,22.5,0v16.47l14.309-8.279a11.269,11.269,0,1,1,11.25,19.529L422.5,202Z" fill="#ffcd46" stroke="#afafaf" stroke-width="1"/>
  </g>
</svg>
