<svg xmlns="http://www.w3.org/2000/svg" width="100" height="100" viewBox="0 0 100 100">
  <g id="Path_45" data-name="Path 45" fill="#fff">
    <path d="M 50 97 C 43.65372467041016 97 37.49886322021484 95.75773620605469 31.70639991760254 93.3077392578125 C 26.11003112792969 90.940673828125 21.08335304260254 87.55138397216797 16.7659854888916 83.23401641845703 C 12.44861507415771 78.91664886474609 9.059323310852051 73.88996887207031 6.692261695861816 68.29360198974609 C 4.242261409759521 62.50113677978516 3 56.34627532958984 3 50 C 3 43.65372467041016 4.242261409759521 37.49886322021484 6.692261695861816 31.70639991760254 C 9.059323310852051 26.11003112792969 12.44861507415771 21.08335304260254 16.7659854888916 16.7659854888916 C 21.08335304260254 12.44861507415771 26.11003112792969 9.059323310852051 31.70639991760254 6.692261695861816 C 37.49886322021484 4.242261409759521 43.65372467041016 3 50 3 C 56.34627532958984 3 62.50113677978516 4.242261409759521 68.29360198974609 6.692261695861816 C 73.88996887207031 9.059323310852051 78.91664886474609 12.44861507415771 83.23401641845703 16.7659854888916 C 87.55138397216797 21.08335304260254 90.940673828125 26.11003112792969 93.3077392578125 31.70639991760254 C 95.75773620605469 37.49886322021484 97 43.65372467041016 97 50 C 97 56.34627532958984 95.75773620605469 62.50113677978516 93.3077392578125 68.29360198974609 C 90.940673828125 73.88996887207031 87.55138397216797 78.91664886474609 83.23401641845703 83.23401641845703 C 78.91664886474609 87.55138397216797 73.88996887207031 90.940673828125 68.29360198974609 93.3077392578125 C 62.50113677978516 95.75773620605469 56.34627532958984 97 50 97 Z" stroke="none"/>
    <path d="M 50 6 C 25.73831939697266 6 6 25.73831939697266 6 50 C 6 74.26168060302734 25.73831939697266 94 50 94 C 74.26168060302734 94 94 74.26168060302734 94 50 C 94 25.73831939697266 74.26168060302734 6 50 6 M 50 0 C 77.61424255371094 0 100 22.38575744628906 100 50 C 100 77.61424255371094 77.61424255371094 100 50 100 C 22.38575744628906 100 0 77.61424255371094 0 50 C 0 22.38575744628906 22.38575744628906 0 50 0 Z" stroke="none" fill="#d1d1d1"/>
  </g>
</svg>
